<?xml version="1.0" encoding="UTF-8" standalone="no"?>
<!-- Created with Inkscape (http://www.inkscape.org/) -->

<svg
   width="300mm"
   height="200mm"
   viewBox="0 0 300 200"
   version="1.1"
   id="svg1"
   xml:space="preserve"
   inkscape:version="1.3 (0e150ed6c4, 2023-07-21)"
   sodipodi:docname="archlinux-dots.svg"
   xmlns:inkscape="http://www.inkscape.org/namespaces/inkscape"
   xmlns:sodipodi="http://sodipodi.sourceforge.net/DTD/sodipodi-0.dtd"
   xmlns="http://www.w3.org/2000/svg"
   xmlns:svg="http://www.w3.org/2000/svg"><sodipodi:namedview
     id="namedview1"
     pagecolor="#505050"
     bordercolor="#eeeeee"
     borderopacity="1"
     inkscape:showpageshadow="0"
     inkscape:pageopacity="0"
     inkscape:pagecheckerboard="0"
     inkscape:deskcolor="#505050"
     inkscape:document-units="mm"
     inkscape:zoom="0.71268238"
     inkscape:cx="480.57874"
     inkscape:cy="370.4315"
     inkscape:window-width="1892"
     inkscape:window-height="1006"
     inkscape:window-x="12"
     inkscape:window-y="58"
     inkscape:window-maximized="1"
     inkscape:current-layer="layer1" /><defs
     id="defs1"><rect
       x="520.81198"
       y="236.74356"
       width="468.92456"
       height="97.017378"
       id="rect2" /><rect
       x="520.81195"
       y="236.74356"
       width="498.18345"
       height="131.47257"
       id="rect2-3" /></defs><g
     inkscape:label="Layer 1"
     inkscape:groupmode="layer"
     id="layer1"><rect
       style="fill:#383c55;stroke-width:0.293475;fill-opacity:1"
       id="rect1"
       width="302.79166"
       height="202.2019"
       x="-1.1565841"
       y="-0.97064543"
       ry="3.6660862" /><text
       xml:space="preserve"
       transform="matrix(0.26458333,0,0,0.26458333,70.940204,23.715305)"
       id="text1-5"
       style="font-style:normal;font-variant:normal;font-weight:bold;font-stretch:normal;font-size:96px;font-family:'Noto Sans';-inkscape-font-specification:'Noto Sans, Bold';font-variant-ligatures:normal;font-variant-caps:normal;font-variant-numeric:normal;font-variant-east-asian:normal;white-space:pre;shape-inside:url(#rect2-3);fill:#ce9f68;fill-opacity:1;stroke:none;stroke-width:1.37953"><tspan
         x="520.8125"
         y="324.09216"
         id="tspan3">Dots</tspan></text><path
       d="m 73.211508,56.501644 c -3.335223,8.174119 -5.345679,13.520949 -9.057695,21.452867 2.276145,2.413035 5.069511,5.221617 9.595969,8.395313 -4.877553,-2.006966 -8.191678,-4.02211 -10.691315,-6.113375 -4.751189,9.911989 -12.193927,24.034461 -27.298208,51.174681 11.882639,-6.85294 21.07488,-11.07748 29.662104,-12.69244 -0.368433,-1.58448 -0.578081,-3.29771 -0.561716,-5.08468 l 0.01327,-0.38037 c 0.187091,-7.60657 4.144979,-13.455452 8.831814,-13.05756 4.686835,0.39806 8.329761,6.88801 8.141389,14.49463 a 21.485641,21.485641 0 0 1 -0.478654,4.0853 c 8.484254,1.65941 17.588743,5.87462 29.299334,12.63507 l -6.3427,-11.73283 c -3.10112,-2.40251 -6.334528,-5.53055 -12.93115,-8.91722 4.534679,1.17841 7.782109,2.53706 10.29811,4.05723 C 81.680952,77.557727 80.059003,72.607637 73.196691,56.5016 Z"
       fill="#1793d1"
       fill-rule="evenodd"
       id="path1"
       style="stroke-width:1.17024" /><text
       xml:space="preserve"
       transform="matrix(1.7302648,0,0,1.7302648,-795.79495,-356.59369)"
       id="text1"
       style="font-style:normal;font-variant:normal;font-weight:bold;font-stretch:normal;font-size:18.4789px;font-family:Sans;-inkscape-font-specification:'Sans, Bold';font-variant-ligatures:normal;font-variant-caps:normal;font-variant-numeric:normal;font-variant-east-asian:normal;white-space:pre;shape-inside:url(#rect2);display:inline;fill:#a94a52;fill-opacity:1;stroke:none;stroke-width:1.37953"><tspan
         x="520.8125"
         y="253.55763"
         id="tspan4">ArchLinux</tspan></text></g></svg>
