<svg width="24.000000" height="24.000000" viewBox="0 0 24 24" fill="none" xmlns="http://www.w3.org/2000/svg" xmlns:xlink="http://www.w3.org/1999/xlink">
	<desc>
			Created with Pixso.
	</desc>
	<defs>
		<clipPath id="clip43_283">
			<rect id="heart-svgrepo-com" width="24.000000" height="24.000000" fill="white" fill-opacity="0"/>
		</clipPath>
	</defs>
	<g clip-path="url(#clip43_283)">
		<path id="path" d="M8.96 18.91L9.42 18.32L8.96 18.91ZM12 5.5L11.45 6.02C11.6 6.16 11.79 6.25 12 6.25C12.2 6.25 12.39 6.16 12.54 6.02L12 5.5ZM15.03 18.91L15.5 19.49L15.03 18.91ZM9.42 18.32C7.91 17.12 6.25 15.96 4.93 14.47C3.64 13.02 2.75 11.33 2.75 9.13L1.25 9.13C1.25 11.8 2.36 13.83 3.81 15.47C5.24 17.08 7.07 18.37 8.49 19.49L9.42 18.32ZM2.75 9.13C2.75 6.98 3.96 5.18 5.62 4.42C7.23 3.68 9.4 3.88 11.45 6.02L12.54 4.98C10.09 2.44 7.26 2.02 5 3.05C2.78 4.07 1.25 6.42 1.25 9.13L2.75 9.13ZM8.49 19.49C9 19.9 9.55 20.33 10.11 20.65C10.67 20.98 11.3 21.25 12 21.25L12 19.75C11.69 19.75 11.32 19.62 10.87 19.36C10.42 19.1 9.95 18.73 9.42 18.32L8.49 19.49ZM15.5 19.49C16.92 18.37 18.75 17.08 20.18 15.47C21.63 13.83 22.75 11.8 22.75 9.13L21.25 9.13C21.25 11.33 20.35 13.02 19.06 14.47C17.74 15.96 16.08 17.12 14.57 18.32L15.5 19.49ZM22.75 9.13C22.75 6.42 21.21 4.07 18.99 3.05C16.73 2.02 13.9 2.44 11.45 4.98L12.54 6.02C14.59 3.88 16.76 3.68 18.37 4.42C20.03 5.18 21.25 6.98 21.25 9.13L22.75 9.13ZM14.57 18.32C14.04 18.73 13.57 19.1 13.12 19.36C12.67 19.62 12.3 19.75 12 19.75L12 21.25C12.69 21.25 13.32 20.98 13.88 20.65C14.44 20.33 14.99 19.9 15.5 19.49L14.57 18.32Z" fill="#FB646D" fill-opacity="1.000000" fill-rule="nonzero"/>
	</g>
</svg>
