<?xml version="1.0" encoding="UTF-8"?>
<svg id="_Слой_2" data-name="Слой 2" xmlns="http://www.w3.org/2000/svg" viewBox="0 0 165.79 178.65">
  <defs>
    <style>
      .cls-1 {
        fill: #f7b388;
      }

      .cls-1, .cls-2, .cls-3, .cls-4 {
        stroke: #1d1d1b;
        stroke-miterlimit: 10;
      }

      .cls-2 {
        fill: #121212;
      }

      .cls-3 {
        fill: #fff;
      }

      .cls-4 {
        fill: #ced6ee;
      }
    </style>
  </defs>
  <g id="_Слой_1-2" data-name="Слой 1">
    <g>
      <g>
        <path class="cls-1" d="M160.96,30.97c-1.61-5.92-3.47-12.81-5.32-19.05-2.54-8.31-6.67-16.32-15.49-7.75-4.72,5.09-7.29,10.91-11.17,16.89-7.14,11.8-17.76,29.44-23.2,38.39-5.3,10.39-17.79,13.51-28.69,11.59-5.45-.96-11.09-3.42-14.33-7.53-4.19-5.74-7.42-11.99-11.49-18.46-4.78-7.91-9.72-16.08-14.49-23.98-4.38-7.04-6.11-10.68-9.99-15.65C19.58-2.56,14.27-.53,10.91,9.62c-2.71,8.33-5.13,17.96-7.21,25.57-1.22,4.66-2.29,8.87-2.85,13.86-.46,4.04-.41,8.11-.16,12.19.59,6.97.58,14.03,2.53,20.63,2.44,7.99,9.12,13.65,12.11,21.44,3.92,9.71,2.67,16.04,10.3,23.29,10.42,11.21,26.39,28.23,36.19,38.75,6.4,9.32,15.83,15.45,27.36,11.68,6.98-2.22,11.85-7.87,16.4-13.39,5.28-5.66,10.64-11.38,16-17.12,5.42-5.77,11.76-12.61,16.73-17.9,3.11-3.4,5.1-5.25,6.84-8.55,2.4-4.64,2.39-9.18,4.74-15.28,2.91-8.74,10.57-14.88,12.97-23.8,1.9-8.01,2.12-16.93,2.45-25.22.07-9.06-2.08-16.3-4.28-24.59l-.05-.19Z"/>
        <path class="cls-4" d="M149.27,93.59c9.45-4.66,11.59-18.58,11.97-28.65.57-10.04-1.08-18.44-3.75-27.74-2.35-7.7-5.98-30.57-17.13-18.39-2.93,3.29-5.13,7.58-7.52,11.43-5.06,8.5-13.1,21.94-17.71,29.72-3.1,5.37-5.57,8.88.64,13.41,6.04,4.68,16.21,11.88,22.54,16.5,4.46,3.03,6.95,4.97,10.83,3.77l.12-.04Z"/>
        <path class="cls-4" d="M18.83,90.79c3.86,1.04,6.32-.96,10.77-3.98,6.35-4.65,16.44-11.76,22.49-16.48,6.06-4.43,3.54-8.08.5-13.3-4.61-7.78-12.65-21.22-17.71-29.72-2.41-3.88-4.64-8.24-7.62-11.54C15.55,3.24,12.17,28.96,9.63,36.53c-2.41,8.54-3.62,16.23-3.15,25.48.34,10.09,2.68,24.46,12.22,28.74l.12.04Z"/>
      </g>
      <path class="cls-2" d="M89.73,163.92c-1.74,5.14-11.81,5.28-13.66,0,0-2.13,3.06-3.85,6.83-3.85s6.83,1.73,6.83,3.85Z"/>
      <path class="cls-2" d="M93.24,120.48c-.97-1.6,8.14-5.64,9.84-6.87,6.84-3.71,12.81-8.16,20.13-7.68,5.25.67,4.67,5.1.73,7.73-4.15,3.04-9.79,3.73-15.05,5.13-4.49.96-12.52,3.06-15.62,1.73l-.04-.04Z"/>
      <path class="cls-3" d="M100.07,117.64c-.21-.5.86-1.5,3.14-2.85,2.29-1.34,4.78-2.7,7.14-3.97,4.41-2.17,9.93-4.83,12.86-2.43.72.69.99,1.59.45,2.54-2.65,3.48-8.31,4.67-12.59,5.68-2.47.53-5.08,1.01-7.08,1.26-2.22.28-3.65.27-3.9-.18l-.02-.04Z"/>
      <path class="cls-2" d="M72.18,120.48c.97-1.6-8.14-5.64-9.84-6.87-6.84-3.71-12.81-8.16-20.13-7.68-5.25.67-4.67,5.1-.73,7.73,4.15,3.04,9.79,3.73,15.05,5.13,4.49.96,12.52,3.06,15.62,1.73l.04-.04Z"/>
      <path class="cls-3" d="M65.35,117.64c.21-.5-.86-1.5-3.14-2.85-2.29-1.34-4.78-2.7-7.14-3.97-4.41-2.17-9.93-4.83-12.86-2.43-.72.69-.99,1.59-.45,2.54,2.65,3.48,8.31,4.67,12.59,5.68,2.47.53,5.08,1.01,7.08,1.26,2.22.28,3.65.27,3.9-.18l.02-.04Z"/>
    </g>
  </g>
</svg>