<svg width="65.000000" height="58.115967" viewBox="0 0 65 58.116" fill="none" xmlns="http://www.w3.org/2000/svg" xmlns:xlink="http://www.w3.org/1999/xlink">
	<desc>
			Created with Pixso.
	</desc>
	<defs/>
	<path id="path" d="M32.51 23.33C34.07 23.33 35.4 23.88 36.5 24.98C37.61 26.08 38.16 27.4 38.17 28.96C38.17 30.51 37.63 31.84 36.53 32.95C35.43 34.06 34.11 34.61 32.55 34.62C30.99 34.64 29.66 34.1 28.55 33.01C27.43 31.92 26.87 30.59 26.85 29.04C26.85 27.47 27.39 26.13 28.5 25.01C29.6 23.9 30.94 23.34 32.51 23.33ZM18.51 53.2C20.41 54.34 24.56 52.59 29.39 48.06C27.78 46.23 26.25 44.31 24.83 42.33C22.39 42.05 19.97 41.65 17.57 41.12C16.03 47.58 16.6 52.02 18.51 53.2ZM20.65 35.86L19.78 34.32C19.43 35.17 19.14 36.04 18.9 36.92C19.72 37.1 20.62 37.25 21.56 37.4L20.65 35.86ZM40.43 33.57L42.88 29.04L40.43 24.51C39.53 22.91 38.56 21.49 37.68 20.07C36.05 19.98 34.32 19.98 32.51 19.98C30.7 19.98 28.97 19.98 27.34 19.98C26.46 21.4 25.49 22.82 24.59 24.42L22.14 29.04L24.59 33.57C25.49 35.17 26.46 36.59 27.34 38.01C28.97 38.01 30.7 38.01 32.51 38.01C34.32 38.01 36.05 38.01 37.68 38.01C38.56 36.59 39.53 35.17 40.43 33.57ZM32.51 13.27C31.94 13.94 31.33 14.63 30.73 15.45L34.29 15.45C33.69 14.63 33.08 13.94 32.51 13.27ZM32.51 44.8C33.08 44.14 33.69 43.44 34.29 42.63L30.73 42.63C31.33 43.44 31.94 44.14 32.51 44.8ZM46.48 4.88C44.61 3.73 40.43 5.48 35.63 10.01C37.24 11.85 38.77 13.76 40.19 15.75C42.63 15.98 45.05 16.35 47.45 16.84C48.99 10.37 48.42 6.06 46.48 4.88ZM44.37 22.09L45.24 23.63C45.59 22.78 45.88 21.92 46.12 21.04C45.3 20.85 44.4 20.7 43.46 20.55L44.37 22.09ZM48.75 0.95C53.2 3.49 53.68 10.16 51.78 17.95C59.46 20.22 65 23.99 65 29.07C65 34.14 59.46 37.92 51.78 40.18C53.65 47.97 53.17 54.65 48.75 57.18C44.34 59.72 38.32 56.82 32.51 51.29C26.7 56.82 20.68 59.72 16.24 57.18C11.79 54.65 11.34 48.12 13.21 40.18C5.53 37.92 0 34.14 0 29.07C0 23.99 5.53 20.19 13.21 17.92C11.34 10.13 11.82 3.46 16.24 0.92C20.65 -1.61 26.7 1.28 32.51 6.81C38.32 1.28 44.34 -1.58 48.75 0.95ZM47.88 29.04C48.93 31.26 49.85 33.54 50.66 35.86C57.01 33.96 60.58 31.24 60.58 29.04C60.58 26.83 56.92 24.12 50.66 22.21C49.85 24.54 48.93 26.81 47.88 29.04ZM17.14 29.04C16.09 26.81 15.17 24.54 14.36 22.21C8.01 24.12 4.44 26.83 4.44 29.04C4.44 31.24 8.1 33.96 14.36 35.86C15.17 33.54 16.09 31.26 17.14 29.04ZM44.37 35.86L43.46 37.4C44.4 37.4 45.3 37.1 46.12 36.92C45.88 36.04 45.59 35.17 45.24 34.32L44.37 35.86ZM35.53 48.06C40.34 52.59 44.61 54.34 46.39 53.2C48.18 52.05 48.9 47.7 47.36 41.12C44.96 41.61 42.54 41.97 40.1 42.2C38.68 44.24 37.16 46.19 35.53 48.06ZM20.65 22.21L21.56 20.67C20.62 20.67 19.72 20.97 18.9 21.16C19.14 22.04 19.43 22.9 19.78 23.75L20.65 22.21ZM29.49 10.01C24.59 5.48 20.41 3.73 18.51 4.88C16.6 6.03 16.03 10.37 17.57 16.96C19.97 16.47 22.39 16.1 24.83 15.87C26.28 13.84 27.83 11.89 29.49 10.01Z" fill="#C5BEB5" fill-opacity="1.000000" fill-rule="nonzero"/>
</svg>
