<svg width="34.000000" height="34.000000" viewBox="0 0 34 34" fill="none" xmlns="http://www.w3.org/2000/svg" xmlns:xlink="http://www.w3.org/1999/xlink">
	<desc>
			Created with Pixso.
	</desc>
	<defs>
		<clipPath id="clip52_15">
			<rect id="reactrouter-icon" width="34.000000" height="34.000000" fill="white" fill-opacity="0"/>
		</clipPath>
	</defs>
	<g clip-path="url(#clip52_15)">
		<path id="path" d="M17.16 7.74C16.86 7.74 16.57 7.77 16.28 7.85C15.89 7.95 15.29 8.32 14.93 8.68C14.35 9.28 14.24 9.54 13.99 10.76C13.88 11.36 14.57 12.78 15.19 13.22C15.83 13.66 16.73 13.93 18.12 14.08C20.14 14.3 20.72 14.98 20.72 17.19C20.72 19.14 20.18 19.66 17.95 19.89C15.53 20.13 14.29 21.07 14.03 22.89C13.88 23.99 14.61 25.38 15.62 25.85C17.93 26.94 20.09 25.57 20.54 22.74C20.83 20.92 21.42 20.41 23.37 20.26C25.62 20.08 26.78 19.31 27.21 17.73C27.6 16.29 26.78 14.68 25.37 14.11C25 13.96 24.13 13.78 23.46 13.7C21.34 13.48 20.8 13.1 20.57 11.73C20.25 9.84 20.12 9.52 19.45 8.77C18.84 8.09 18.08 7.74 17.16 7.74ZM10.38 13.92C10.15 13.91 9.91 13.93 9.68 13.98C7.6 14.43 6.61 16.89 7.77 18.65C9.44 21.16 13.35 20 13.39 16.98C13.41 15.29 12 13.95 10.38 13.92ZM2.95 20.1C2.75 20.1 2.55 20.13 2.35 20.17C-0.71 20.85 -0.82 25.31 2.2 26.1C2.95 26.3 3.02 26.3 3.77 26.11C5.46 25.66 6.42 24.05 5.97 22.42C5.57 20.98 4.35 20.06 2.95 20.1ZM31.04 20.11C30.71 20.11 30.36 20.19 29.93 20.34C27.96 21.01 27.28 23.3 28.54 25.06C29.33 26.19 31.32 26.56 32.53 25.8C34.54 24.56 34.47 21.46 32.4 20.49C31.86 20.23 31.46 20.1 31.04 20.11Z" fill="#C5BEB5" fill-opacity="1.000000" fill-rule="nonzero"/>
	</g>
</svg>
