<svg width="34.000000" height="34.000000" viewBox="0 0 34 34" fill="none" xmlns="http://www.w3.org/2000/svg" xmlns:xlink="http://www.w3.org/1999/xlink">
	<desc>
			Created with Pixso.
	</desc>
	<defs/>
	<path id="typescript-icon" d="M0 3.71C0 1.66 1.66 0 3.71 0L30.28 0C32.33 0 34 1.66 34 3.71L34 7.96C34 8.84 33.28 9.56 32.4 9.56C31.52 9.56 30.81 8.84 30.81 7.96L30.81 3.71C30.81 3.42 30.57 3.18 30.28 3.18L3.71 3.18C3.42 3.18 3.18 3.42 3.18 3.71L3.18 30.28C3.18 30.57 3.42 30.81 3.71 30.81L32.4 30.81C33.28 30.81 34 31.52 34 32.4C34 33.28 33.28 34 32.4 34L3.71 34C1.66 34 0 32.33 0 30.28L0 3.71ZM10.09 13.81C10.09 12.93 10.8 12.21 11.68 12.21L19.65 12.21C20.53 12.21 21.25 12.93 21.25 13.81C21.25 14.69 20.53 15.4 19.65 15.4L17.53 15.4L17.53 26.56C17.53 27.44 16.81 28.15 15.93 28.15C15.05 28.15 14.34 27.44 14.34 26.56L14.34 15.4L11.68 15.4C10.8 15.4 10.09 14.69 10.09 13.81ZM23.96 13.98C24.85 12.92 26.24 12.21 28.15 12.21C29.93 12.21 31.26 12.82 32.17 13.78C32.77 14.41 32.74 15.42 32.1 16.03C31.46 16.63 30.45 16.6 29.85 15.96C29.62 15.72 29.15 15.4 28.15 15.4C27.09 15.4 26.62 15.76 26.4 16.03C26.12 16.36 26.03 16.77 26.03 17C26.03 17.22 26.12 17.63 26.4 17.96C26.62 18.23 27.09 18.59 28.15 18.59C28.31 18.59 28.47 18.61 28.61 18.66C30.02 18.86 31.09 19.49 31.82 20.35C32.65 21.35 32.93 22.53 32.93 23.37C32.93 24.21 32.65 25.39 31.82 26.39C30.93 27.45 29.53 28.15 27.62 28.15C25.85 28.15 24.51 27.54 23.61 26.59C23 25.95 23.03 24.94 23.67 24.34C24.31 23.73 25.32 23.76 25.92 24.4C26.15 24.65 26.62 24.96 27.62 24.96C28.68 24.96 29.15 24.61 29.37 24.34C29.65 24.01 29.75 23.59 29.75 23.37C29.75 23.15 29.65 22.73 29.37 22.4C29.15 22.13 28.68 21.78 27.62 21.78C27.46 21.78 27.3 21.75 27.16 21.71C25.75 21.51 24.68 20.88 23.96 20.01C23.12 19.02 22.84 17.84 22.84 17C22.84 16.15 23.12 14.98 23.96 13.98Z" fill="#C5BEB5" fill-opacity="1.000000" fill-rule="nonzero"/>
</svg>
